<svg viewBox="0 0 800 800" xmlns="http://www.w3.org/2000/svg"><path d="M375.38900092172895,499.2282930666065 L375.49040107382143,520.4795491202543 M375.49040107382143,520.4795491202543 L353.99411670536506,292.99186192162335 M372.5033877076891,282.9058850897309 L353.99411670536506,292.99186192162335 M375.38900092172895,499.2282930666065 L372.5033877076891,282.9058850897309 M375.49040107382143,520.4795491202543 L375.8824068746765,602.162479271738 M375.8824068746765,602.162479271738 L376.2154403063117,611.5384055049765 M376.2154403063117,611.5384055049765 L377.23519733952025,621.2337973401966 M377.23519733952025,621.2337973401966 L378.9331319850608,631.175212260717 M378.9331319850608,631.175212260717 L381.29570901074413,641.287593345845 M381.29570901074413,641.287593345845 L384.30454078617254,651.4947559197188 M384.30454078617254,651.4947559197188 L387.93650181224166,661.7199621983675 M387.93650181224166,661.7199621983675 L392.16394986744257,671.8864601226725 M392.16394986744257,671.8864601226725 L396.9549036163223,681.9180020834999 M396.9549036163223,681.9180020834999 L402.27325908204796,691.7393825704004 M402.27325908204796,691.7393825704004 L408.07909332687956,701.2769727049398 M408.07909332687956,701.2769727049398 L414.3288954165263,710.4592170853527 M414.3288954165263,710.4592170853527 L420.9759002048118,719.2171346950279 M420.9759002048118,719.2171346950279 L427.97039279319506,727.4848107501962 M427.97039279319506,727.4848107501962 L435.2600602745784,735.1998534876058 M435.2600602745784,735.1998534876058 L442.7903427490876,742.3038421064488 M442.7903427490876,742.3038421064488 L450.5048177624395,748.742753747564 M450.5048177624395,748.742753747564 L458.3455863902481,754.4673583434165 M458.3455863902481,754.4673583434165 L466.25367721180896,759.4335898335 M466.25367721180896,759.4335898335 L474.16946463716283,763.6028889262071 M474.16946463716283,763.6028889262071 L482.03309103108467,766.9425100836812 M482.03309103108467,766.9425100836812 L489.784895687317,769.4257930404517 M489.784895687317,769.4257930404517 L497.3658535542755,771.0323993222174 M497.3658535542755,771.0323993222174 L504.71801256940057,771.7485059694183 M504.71801256940057,771.7485059694183 L511.7849250612814,771.5669541908139 M511.7849250612814,771.5669541908139 L518.5120883504006,770.4873603138421 M518.5120883504006,770.4873603138421 L524.8473608902232,768.516160436173 M524.8473608902232,768.516160436173 L530.7413866064362,765.6666379780378 M530.7413866064362,765.6666379780378 L536.1479767217311,761.9588494318165 M536.1479767217311,761.9588494318165 L541.0245245960556,757.4195615191835 M541.0245245960556,757.4195615191835 L545.3323169431413,752.0820573930772 M545.3323169431413,752.0820573930772 L549.0369175575545,745.9859729326593 M549.0369175575545,745.9859729326593 L552.1084585535281,739.1770108552989 M552.1084585535281,739.1770108552989 L554.5218858447299,731.7066110005791 M554.5218858447299,731.7066110005791 L556.2572410250411,723.6316335779861 M556.2572410250411,723.6316335779861 L557.2998244889259,715.0138653819183 M557.2998244889259,715.0138653819183 L557.6403698715433,705.9196256167573 M557.6403698715433,705.9196256167573 L558.0412539494805,623.7700195608394 M558.0412539494805,623.7700195608394 L558.1449570075956,602.3953626597213 M558.1449570075956,602.3953626597213 L468.0845258760365,549.442838542554 M468.0845258760365,549.442838542554 L467.4742433239852,549.0865055366917 M467.4742433239852,549.0865055366917 L466.8639512200627,548.7349389420563 M466.8639512200627,548.7349389420563 L466.253677211809,548.3881375536465 M466.253677211809,548.3881375536465 L465.6434489914338,548.0461164687308 M465.6434489914338,548.0461164687308 L465.0332942428359,547.7088907728269 M465.0332942428359,547.7088907728269 L464.4232405886486,547.3764917904348 M464.4232405886486,547.3764917904348 L375.38900092172895,499.2282930666065 M375.8824068746765,602.162479271738 L282.07189611630326,332.185884625705 M353.99411670536506,292.99186192162335 L282.07189611630326,332.185884625705 M282.07189611630326,332.185884625705 L274.1766653886502,336.8124213890705 M274.1766653886502,336.8124213890705 L267.0306477531773,341.80287413970154 M267.0306477531773,341.80287413970154 L260.6892166642847,347.12005558559343 M260.6892166642847,347.12005558559343 L255.201886170474,352.7242159297251 M255.201886170474,352.7242159297251 L250.6119841330232,358.5732939403768 M250.6119841330232,358.5732939403768 L246.95618408416672,364.6232264956879 M246.95618408416672,364.6232264956879 L244.2642871765259,370.8282515512186 M244.2642871765259,370.8282515512186 L242.55886611646278,377.14124855456595 M242.55886611646278,377.14124855456595 L241.85504299240444,383.5140623962486 M241.85504299240444,383.5140623962486 L242.16035914526117,389.89789001877284 M242.16035914526117,389.89789001877284 L243.474603934157,396.243622274173 M243.474603934157,396.243622274173 L245.78975442351614,402.502257165999 M245.78975442351614,402.502257165999 L249.09002188773434,408.6252368720136 M249.09002188773434,408.6252368720136 L253.3518255010137,414.5648935092172 M253.3518255010137,414.5648935092172 L258.5440194498126,420.2747693329987 M258.5440194498126,420.2747693329987 L264.6279912451925,425.71005844205416 M264.6279912451925,425.71005844205416 L271.55795936527966,430.82795214878035 M271.55795936527966,430.82795214878035 L279.2813283675546,435.5879820247591 M279.2813283675546,435.5879820247591 L287.73899646131656,439.9524121366753 M287.73899646131656,439.9524121366753 L296.8658782265003,443.8865211319404 M296.8658782265003,443.8865211319404 L306.5913272151132,447.35894847360925 M306.5913272151132,447.35894847360925 L316.8397775265109,450.3419292776672 M316.8397775265109,450.3419292776672 L327.53131726650827,452.8115605041429 M327.53131726650827,452.8115605041429 L338.5822885601929,454.7480384695455 M338.5822885601929,454.7480384695455 L349.90608615146476,456.1357869679485 M349.90608615146476,456.1357869679485 L361.41375779576896,456.9636549813156 M361.41375779576896,456.9636549813156 L373.01485574309936,457.22497050958646 M373.01485574309936,457.22497050958646 L384.61811075991204,456.9176285082629 M384.61811075991204,456.9176285082629 L396.1322633746736,456.0441127015788 M396.1322633746736,456.0441127015788 L407.46678127232065,454.6114451353733 M407.46678127232065,454.6114451353733 L418.5326702019494,452.6311495133587 M418.5326702019494,452.6311495133587 L429.2431798774348,450.11915082529 M429.2431798774348,450.11915082529 L439.51454517202126,447.095588086332 M439.51454517202126,447.095588086332 L449.2666596274634,443.58469272336663 M449.2666596274634,443.58469272336663 L458.4237588957015,439.6145143465486 M458.4237588957015,439.6145143465486 L466.9149903553347,435.21671454688567 M466.9149903553347,435.21671454688567 L538.8474727980953,395.12117761611466 M538.8474727980953,395.12117761611466 L557.3570173790346,384.80318674374524 M557.3570173790346,384.80318674374524 L468.08678931752706,333.57688288810215 M468.08678931752706,333.57688288810215 L467.4798721987207,333.2310485470894 M467.4798721987207,333.2310485470894 L466.8688257537765,332.88748189712925 M466.8688257537765,332.88748189712925 L466.25367721180896,332.54619772197805 M466.25367721180896,332.54619772197805 L465.63445402711136,332.20721073285597 M465.63445402711136,332.20721073285597 L465.0111838236264,331.87053553842964 M465.0111838236264,331.87053553842964 L464.3838943403052,331.5361866143383 M464.3838943403052,331.5361866143383 L372.5033877076891,282.9058850897309 M401.2986512870223,368.3433720747413 L405.3856109181852,371.01442653400846 M405.3856109181852,371.01442653400846 L408.6450836901066,374.0172432904673 M408.6450836901066,374.0172432904673 L410.9921129242191,377.27462339914615 M410.9921129242191,377.27462339914615 L412.36505295733787,380.7026623279367 M412.36505295733787,380.7026623279367 L412.72728050738925,384.2128572407561 M412.72728050738925,384.2128572407561 L412.06823866157714,387.7143787022807 M412.06823866157714,387.7143787022807 L410.40385125617325,391.11640609825224 M410.40385125617325,391.11640609825224 L407.77618727863387,394.3305096554683 M407.77618727863387,394.3305096554683 L404.2525221186713,397.27295498444437 M404.2525221186713,397.27295498444437 L399.92365082642795,399.8669320927729 M399.92365082642795,399.8669320927729 L394.90160252700616,402.0446017062796 M394.90160252700616,402.0446017062796 L389.3167334992221,403.748925830289 M389.3167334992221,403.748925830289 L383.3143204067048,404.9352072942819 M383.3143204067048,404.9352072942819 L377.0507519667395,405.5723026090574 M377.0507519667395,405.5723026090574 L370.6893529217437,405.64348249549346 M370.6893529217437,405.64348249549346 L364.39607242806966,405.1468739305693 M364.39607242806966,405.1468739305693 L358.335047788776,404.0955174075367 M358.335047788776,404.0955174075367 L352.66421944656645,402.51702470966774 M352.66421944656645,402.51702470966774 L347.53115457957233,400.45280747702714 M347.53115457957233,400.45280747702714 L343.0691838487283,397.95694066772114 M343.0691838487283,397.95694066772114 L339.39385954476944,395.0947231126122 M339.39385954476944,395.0947231126122 L336.5999643425286,391.9409183104053 M336.5999643425286,391.9409183104053 L334.7591434813795,388.5777257417603 M334.7591434813795,388.5777257417603 L333.9181068385967,385.0926155453368 M333.9181068385967,385.0926155453368 L334.09748917892364,381.57603322842306 M334.09748917892364,381.57603322842306 L335.29145953412745,378.1190302214985 M335.29145953412745,378.1190302214985 L337.4680044612366,374.81090062042927 M337.4680044612366,374.81090062042927 L340.56984184266196,371.73691142907217 M340.56984184266196,371.73691142907217 L344.51601652792755,368.97612047792137 M344.51601652792755,368.97612047792137 L349.2040555813321,366.59939684653017 M349.2040555813321,366.59939684653017 L354.512642731684,364.66764975819405 M354.512642731684,364.66764975819405 L360.3047599195861,363.2303091353175 M360.3047599195861,363.2303091353175 L366.43117810927123,362.32411641015415 M366.43117810927123,362.32411641015415 L372.7342598222951,361.9722085741872 M372.7342598222951,361.9722085741872 L379.05190281597845,362.18357685577837 M379.05190281597845,362.18357685577837 L385.22165126136997,362.9528237122206 M385.22165126136997,362.9528237122206 L391.0847690497393,364.26030585211026 M391.0847690497393,364.26030585211026 L396.49025869141667,366.0726068932539 M396.49025869141667,366.0726068932539 L401.2986512870223,368.3433720747413 M464.4232405886486,547.3764917904348 L464.3838943403052,331.5361866143383 M346.1709250580034,551.4441619904076 L279.2813283675546,435.5879820247591 M402.2479658873846,648.5724458450103 L399.6888561645011,646.9255645475082 M399.6888561645011,646.9255645475082 L397.13864626103174,644.9763790917486 M397.13864626103174,644.9763790917486 L394.72376866948366,642.8989499321937 M394.72376866948366,642.8989499321937 L391.7498561614699,640.0803193266505 M391.7498561614699,640.0803193266505 L387.7349714597995,635.8899035208308 M387.7349714597995,635.8899035208308 L383.48227264954465,631.0421856613398 M383.48227264954465,631.0421856613398 L378.7789332175506,625.2610915441115 M378.7789332175506,625.2610915441115 L373.65178228032744,618.5201023075464 M373.65178228032744,618.5201023075464 L368.17878733392143,610.8738096099034 M368.17878733392143,610.8738096099034 L362.4995590696384,602.488646977041 M362.4995590696384,602.488646977041 L356.81783206870756,593.660800839825 M356.81783206870756,593.660800839825 L351.3877146827759,584.801912240139 M351.3877146827759,584.801912240139 L346.939175720954,577.1892663935166 M346.939175720954,577.1892663935166 L343.08144777435945,570.2355818661985 M343.08144777435945,570.2355818661985 L339.9320699208459,564.1596609610792 M339.9320699208459,564.1596609610792 L337.5485898654263,559.0668708024394 M337.5485898654263,559.0668708024394 L335.9557084263424,554.9992588633204 M335.9557084263424,554.9992588633204 L335.1425189134575,551.9325626734093 M335.1425189134575,551.9325626734093 L335.07493473239214,549.8050190180378 M335.07493473239214,549.8050190180378 L335.7011751706478,548.5334128199938 M335.7011751706478,548.5334128199938 L336.95535306199844,548.0238665488239 M336.95535306199844,548.0238665488239 L338.7594677756068,548.1788718197204 M338.7594677756068,548.1788718197204 L341.02699531771503,548.9012899756246 M341.02699531771503,548.9012899756246 L343.3644131636772,549.9476890622376 M343.3644131636772,549.9476890622376 L346.1709250580034,551.4441619904076 M466.25367721180896,759.4335898335 L402.2479658873846,648.5724458450103 M346.1709250580034,551.4441619904076 L349.67319118439593,553.5591643983636 M349.67319118439593,553.5591643983636 L353.3099861825314,555.9728790824506 M353.3099861825314,555.9728790824506 L357.3546950118479,558.8731151075202 M357.3546950118479,558.8731151075202 L361.6910390589008,562.2133656943051 M361.6910390589008,562.2133656943051 L366.3148343443493,566.0350026285147 M366.3148343443493,566.0350026285147 L371.19841861599826,570.377215243986 M371.19841861599826,570.377215243986 L376.291579497779,575.2742200468274 M376.291579497779,575.2742200468274 L381.52281127175354,580.7519241644045 M381.52281127175354,580.7519241644045 L386.79913073336377,586.8210716921271 M386.79913073336377,586.8210716921271 L392.0087732662316,593.4708994052991 M392.0087732662316,593.4708994052991 L397.01625084083054,600.6500769009485 M397.01625084083054,600.6500769009485 L401.66358709367967,608.2492617345149 M401.66358709367967,608.2492617345149 L405.77000439160577,616.0744212891491 M405.77000439160577,616.0744212891491 L409.14361727112635,623.8309840007947 M409.14361727112635,623.8309840007947 L411.40410966027264,630.4257523946357 M411.40410966027264,630.4257523946357 L412.6414918470479,635.321732827909 M412.6414918470479,635.321732827909 L413.3909248999704,640.5038501057869 M413.3909248999704,640.5038501057869 L413.3325455440607,644.6268995918775 M413.3325455440607,644.6268995918775 L412.557113286619,647.6238842583448 M412.557113286619,647.6238842583448 L411.3649263956499,649.3658484950819 M411.3649263956499,649.3658484950819 L409.8001435917659,650.3086221036059 M409.8001435917659,650.3086221036059 L407.95525147439935,650.5497545460362 M407.95525147439935,650.5497545460362 L405.91367201593243,650.1972842871394 M405.91367201593243,650.1972842871394 L404.2101968216222,649.5707187995225 M404.2101968216222,649.5707187995225 L402.2479658873846,648.5724458450103 M557.6403698715433,705.9196256167573 L466.9149903553347,435.21671454688567 M558.0412539494805,623.7700195608394 L538.8474727980953,395.12117761611466 M558.1449570075956,602.3953626597213 L557.3570173790346,384.80318674374524 M468.0845258760365,549.442838542554 L468.08678931752706,333.57688288810215 M466.253677211809,548.3881375536465 L466.25367721180896,332.54619772197805 M402.2479658873846,648.5724458450103 L401.2986512870223,368.3433720747413" stroke="black"  stroke-width="4"  fill="red"/>
<path d="M402.39155693915,690.9592240769688 L401.2986512870223,368.3433720747413 M401.2986512870223,368.3433720747413 L405.3856109181852,371.01442653400846 M405.3856109181852,371.01442653400846 L408.6450836901066,374.0172432904673 M408.6450836901066,374.0172432904673 L410.9921129242191,377.27462339914615 M410.9921129242191,377.27462339914615 L412.36505295733787,380.7026623279367 M412.36505295733787,380.7026623279367 L412.72728050738925,384.2128572407561 M412.72728050738925,384.2128572407561 L412.06823866157714,387.7143787022807 M412.06823866157714,387.7143787022807 L410.40385125617325,391.11640609825224 M410.40385125617325,391.11640609825224 L407.77618727863387,394.3305096554683 M407.77618727863387,394.3305096554683 L404.2525221186713,397.27295498444437 M404.2525221186713,397.27295498444437 L399.92365082642795,399.8669320927729 M399.92365082642795,399.8669320927729 L394.90160252700616,402.0446017062796 M394.90160252700616,402.0446017062796 L389.3167334992221,403.748925830289 M389.3167334992221,403.748925830289 L383.3143204067048,404.9352072942819 M383.3143204067048,404.9352072942819 L377.0507519667395,405.5723026090574 M377.0507519667395,405.5723026090574 L370.6893529217437,405.64348249549346 M370.6893529217437,405.64348249549346 L364.39607242806966,405.1468739305693 M364.39607242806966,405.1468739305693 L358.335047788776,404.0955174075367 M358.335047788776,404.0955174075367 L352.66421944656645,402.51702470966774 M352.66421944656645,402.51702470966774 L347.53115457957233,400.45280747702714 M347.53115457957233,400.45280747702714 L343.0691838487283,397.95694066772114 M343.0691838487283,397.95694066772114 L339.39385954476944,395.0947231126122 M339.39385954476944,395.0947231126122 L336.5999643425286,391.9409183104053 M336.5999643425286,391.9409183104053 L334.7591434813795,388.5777257417603 M334.7591434813795,388.5777257417603 L333.9181068385967,385.0926155453368 M333.9181068385967,385.0926155453368 L334.09748917892364,381.57603322842306 M334.09748917892364,381.57603322842306 L335.29145953412745,378.1190302214985 M335.29145953412745,378.1190302214985 L337.4680044612366,374.81090062042927 M337.4680044612366,374.81090062042927 L340.56984184266196,371.73691142907217 M340.56984184266196,371.73691142907217 L344.51601652792755,368.97612047792137 M344.51601652792755,368.97612047792137 L349.2040555813321,366.59939684653017 M349.2040555813321,366.59939684653017 L354.512642731684,364.66764975819405 M354.512642731684,364.66764975819405 L360.3047599195861,363.2303091353175 M360.3047599195861,363.2303091353175 L366.43117810927123,362.32411641015415 M366.43117810927123,362.32411641015415 L372.7342598222951,361.9722085741872 M372.7342598222951,361.9722085741872 L379.05190281597845,362.18357685577837 M379.05190281597845,362.18357685577837 L385.22165126136997,362.9528237122206 M385.22165126136997,362.9528237122206 L391.0847690497393,364.26030585211026 M391.0847690497393,364.26030585211026 L396.49025869141667,366.0726068932539 M396.49025869141667,366.0726068932539 L401.2986512870223,368.3433720747413 M402.39155693915,690.9592240769688 L397.6637771483422,688.6466311104019 M397.6637771483422,688.6466311104019 L392.34896503052454,686.8009331641447 M392.34896503052454,686.8009331641447 L386.5842588372418,685.4693491060688 M386.5842588372418,685.4693491060688 L380.5181355352811,684.6859190336885 M380.5181355352811,684.6859190336885 L374.3066826589264,684.4706531924008 M374.3066826589264,684.4706531924008 L368.1096446755092,684.8290499958005 M368.1096446755092,684.8290499958005 L362.0864156822595,685.7519501955516 M362.0864156822595,685.7519501955516 L356.3919949632877,687.2157846532077 M356.3919949632877,687.2157846532077 L351.1731075661026,689.1831263510875 M351.1731075661026,689.1831263510875 L346.564464229694,691.6036242889224 M346.564464229694,691.6036242889224 L342.6853285359324,694.4152362645332 M342.6853285359324,694.4152362645332 L339.63642830884226,697.5457777303931 M339.63642830884226,697.5457777303931 L337.497327129362,700.9147269001699 M337.497327129362,700.9147269001699 L336.32430712811635,704.4352419726999 M336.32430712811635,704.4352419726999 L336.14880264507684,708.0163842615266 M336.14880264507684,708.0163842615266 L336.9765047039078,711.5654301891751 M336.9765047039078,711.5654301891751 L338.7870856177266,714.9902780170175 M338.7870856177266,714.9902780170175 L341.5345860411261,718.2018603811525 M341.5345860411261,718.2018603811525 L345.14853816413347,721.116480855229 M345.14853816413347,721.116480855229 L349.5357353813113,723.6580177937024 M349.5357353813113,723.6580177937024 L354.5825614665019,725.7599887827215 M354.5825614665019,725.7599887827215 L360.157931754159,727.36734057301 M360.157931754159,727.36734057301 L366.11677471760595,728.4379134583618 M366.11677471760595,728.4379134583618 L372.3038286928692,728.943597414469 M372.3038286928692,728.943597414469 L378.5577457900566,728.8711167919305 M378.5577457900566,728.8711167919305 L384.71540042743953,728.2223783844886 M384.71540042743953,728.2223783844886 L390.616248081046,727.0144131821704 M390.616248081046,727.0144131821704 L396.1065615897072,725.2789267718081 M396.1065615897072,725.2789267718081 L401.0435345328308,723.0614240137312 M401.0435345328308,723.0614240137312 L405.2990237148976,720.4199752540006 M405.2990237148976,720.4199752540006 L408.76289761406144,717.4236500441202 M408.76289761406144,717.4236500441202 L411.3458942367989,714.1506545341895 M411.3458942367989,714.1506545341895 L412.9818689213014,710.686249014123 M412.9818689213014,710.686249014123 L413.62945409038844,707.1204791312114 M413.62945409038844,707.1204791312114 L413.27298414184884,703.5458297961067 M413.27298414184884,703.5458297961067 L411.9228276330395,700.0547997195035 M411.9228276330395,700.0547997195035 L409.61498215134753,696.7375229073973 M409.61498215134753,696.7375229073973 L406.4100499433313,693.679454570519 M406.4100499433313,693.679454570519 L402.39155693915,690.9592240769688" stroke="black"  stroke-width="4"  fill="red"/>
<path d="M401.0755659089178,302.49058854641015 L400.16768739976544,34.493073688222466 M400.16768739976544,34.493073688222466 L404.32548709875397,37.1098470299404 M404.32548709875397,37.1098470299404 L407.6413888085159,40.05167289187591 M407.6413888085159,40.05167289187591 L410.02895523107577,43.2429302596413 M410.02895523107577,43.2429302596413 L411.42546072755255,46.60142561829048 M411.42546072755255,46.60142561829048 L411.79363418960384,50.040456447746124 M411.79363418960384,50.040456447746124 L411.1227234019206,53.47103620196208 M411.1227234019206,53.47103620196208 L409.42891907668036,56.804182181114356 M409.42891907668036,56.804182181114356 L406.7550158044334,59.95324955334195 M406.7550158044334,59.95324955334195 L403.1694590343617,62.83618993729965 M403.1694590343617,62.83618993729965 L398.7646304544547,65.37773638051647 M398.7646304544547,65.37773638051647 L393.654523333017,67.51140962523573 M393.654523333017,67.51140962523573 L387.9717848166807,69.1813131184714 M387.9717848166807,69.1813131184714 L381.86424877399,70.34364287196672 M381.86424877399,70.34364287196672 L375.49105926009014,70.9678770650304 M375.49105926009014,70.9678770650304 L369.0184192204018,71.03762012988489 M369.0184192204018,71.03762012988489 L362.6152008500818,70.55103639705919 M362.6152008500818,70.55103639705919 L356.44842900488516,69.52090625916753 M356.44842900488516,69.52090625916753 L350.6788169600836,67.97429044253363 M350.6788169600836,67.97429044253363 L345.4565149084101,65.95177331189166 M345.4565149084101,65.95177331189166 L340.91717780699804,63.506348109254304 M340.91717780699804,63.506348109254304 L337.17836112688514,60.70200519938908 M337.17836112688514,60.70200519938908 L334.33647781035364,57.61200696209221 M334.33647781035364,57.61200696209221 L332.4643905054488,54.31689875543941 M332.4643905054488,54.31689875543941 L331.60958447120663,50.90238625560903 M331.60958447120663,50.90238625560903 L331.79301078996747,47.45708583246028 M331.79301078996747,47.45708583246028 L333.00869216337134,44.070202725936156 M333.00869216337134,44.070202725936156 L335.2240144203659,40.829215777760396 M335.2240144203659,40.829215777760396 L338.3806593323255,37.81765424746334 M338.3806593323255,37.81765424746334 L342.3962306641409,35.11296094616148 M342.3962306641409,35.11296094616148 L347.1664488499027,32.784554083645844 M347.1664488499027,32.784554083645844 L352.5678730413188,30.89209354305217 M352.5678730413188,30.89209354305217 L358.46109744741693,29.483993745564817 M358.46109744741693,29.483993745564817 L364.69430209950485,28.596240357383067 M364.69430209950485,28.596240357383067 L371.1071199667014,28.25149403058174 M371.1071199667014,28.25149403058174 L377.53464705130483,28.4585608004071 M377.53464705130483,28.4585608004071 L383.81162253817035,29.2121543042515 M383.81162253817035,29.2121543042515 L389.77657031232656,30.493035723762205 M389.77657031232656,30.493035723762205 L395.2758853106306,32.268476220590514 M395.2758853106306,32.268476220590514 L400.16768739976544,34.493073688222466 M401.0755659089178,302.49058854641015 L396.2507197431083,300.22869787199534 M396.2507197431083,300.22869787199534 L390.82672203008593,298.4234824006537 M390.82672203008593,298.4234824006537 L384.9435173372095,297.1211136859664 M384.9435173372095,297.1211136859664 L378.7526175624588,296.3548758803223 M378.7526175624588,296.3548758803223 L372.4132993518357,296.1443344834879 M372.4132993518357,296.1443344834879 L366.0885718885075,296.49486565475513 M366.0885718885075,296.49486565475513 L359.9410901242049,297.39751378410915 M359.9410901242049,297.39751378410915 L354.1290299894389,298.82923349304764 M354.1290299894389,298.82923349304764 L348.80213160807165,300.753428698176 M348.80213160807165,300.753428698176 L344.0978840202669,303.1208647677359 M344.0978840202669,303.1208647677359 L340.13802254245275,305.87087272205827 M340.13802254245275,305.87087272205827 L337.02537641226667,308.9328624557688 M337.02537641226667,308.9328624557688 L334.8411849525661,312.22808664638114 M334.8411849525661,312.22808664638114 L333.64293455155746,315.6716123592983 M333.64293455155746,315.6716123592983 L333.4627570297981,319.17449443071024 M333.4627570297981,319.17449443071024 L334.3065120977086,322.6460362689841 M334.3065120977086,322.6460362689841 L336.1535024790607,325.99614388829883 M336.1535024790607,325.99614388829883 L338.9568652470773,329.13768620469017 M338.9568652470773,329.13768620469017 L342.6447149432184,331.98878155591404 M342.6447149432184,331.98878155591404 L347.12194726322036,334.47495483575966 M347.12194726322036,334.47495483575966 L352.27261475967947,336.53115857172605 M352.27261475967947,336.53115857172605 L357.96292830570195,338.1035255895319 M357.96292830570195,338.1035255895319 L364.04481125404925,339.1508031486638 M364.04481125404925,339.1508031486638 L370.35977627611845,339.64548530598745 M370.35977627611845,339.64548530598745 L376.7431165729017,339.57458152384675 M376.7431165729017,339.57458152384675 L383.0283065032558,338.9399576510869 M383.0283065032558,338.9399576510869 L389.0514536863742,337.7582788730719 M389.0514536863742,337.7582788730719 L394.6556259963429,336.06056927559615 M394.6556259963429,336.06056927559615 L399.6950424304027,333.8913544682085 M399.6950424304027,333.8913544682085 L404.0388948883445,331.30745318542154 M404.0388948883445,331.30745318542154 L407.5747668500689,328.37644343472914 M407.5747668500689,328.37644343472914 L410.2115503130142,325.17483875526545 M410.2115503130142,325.17483875526545 L411.88173908686815,321.78604958332704 M411.88173908686815,321.78604958332704 L412.54312103848474,318.29816269286766 M412.54312103848474,318.29816269286766 L412.17971966143296,314.8016454799671 M412.17971966143296,314.8016454799671 L410.8021303611601,311.38697316559217 M410.8021303611601,311.38697316559217 L408.44710417742255,308.1423025156517 M408.44710417742255,308.1423025156517 L405.1764997831835,305.1512091224556 M405.1764997831835,305.1512091224556 L401.0755659089178,302.49058854641015" stroke="black"  stroke-width="4"  fill="red"/>
<path d="M433.84087890661374,350.4091201929129 L433.72978105466785,284.6265333118587 M312.3111439362557,417.38501697442575 L311.77954382134726,351.34152750415444 M433.84087890661374,350.4091201929129 L439.9851794622725,354.1994600547862 M439.9851794622725,354.1994600547862 L445.3553030487577,358.33888926437174 M445.3553030487577,358.33888926437174 L449.8877625139745,362.7797613210678 M449.8877625139745,362.7797613210678 L453.5285441489583,367.470825597516 M453.5285441489583,367.470825597516 L456.23381178918083,372.3577654338524 M456.23381178918083,372.3577654338524 L457.97043922721343,377.3838229304089 M457.97043922721343,377.3838229304089 L458.7165072769445,382.49042907194297 M458.7165072769445,382.49042907194297 L458.46157872099377,387.61787671537434 M458.46157872099377,387.61787671537434 L457.20694956668524,392.7060086346109 M457.20694956668524,392.7060086346109 L454.9656911413884,397.694927066086 M454.9656911413884,397.694927066086 L451.7625684698748,402.52570803999026 M451.7625684698748,402.52570803999026 L447.6338231104332,407.14111200076735 M447.6338231104332,407.14111200076735 L442.626830275715,411.4862776950566 M442.626830275715,411.4862776950566 L436.79956587837944,415.50940752669436 M436.79956587837944,415.50940752669436 L430.2199835039291,419.16240471785204 M430.2199835039291,419.16240471785204 L422.9652100650072,422.4014973862686 M422.9652100650072,422.4014973862686 L415.1206765543579,425.1877775774539 M415.1206765543579,425.1877775774539 L406.7790696480486,427.48771581064375 M406.7790696480486,427.48771581064375 L398.03922999913226,429.27358302000266 M398.03922999913226,429.27358302000266 L389.00493135468787,430.52382687724855 M389.00493135468787,430.52382687724855 L379.7836115419864,431.22334268865245 M379.7836115419864,431.22334268865245 L370.4850375968403,431.3636727137731 M370.4850375968403,431.3636727137731 L361.2199560162627,430.94311073177664 M361.2199560162627,430.94311073177664 L352.0986791080334,429.96675278672615 M352.0986791080334,429.96675278672615 L343.2297187072502,428.4464015951006 M343.2297187072502,428.4464015951006 L334.71848565411494,426.4004124866372 M334.71848565411494,426.4004124866372 L326.6659413249521,423.85346356100894 M326.6659413249521,423.85346356100894 L319.1673360152366,420.83624494294696 M319.1673360152366,420.83624494294696 L312.3111439362557,417.38501697442575 M433.72978105466785,284.6265333118587 L439.89510364303516,288.4020169870498 M439.89510364303516,288.4020169870498 L445.28360849319404,292.52523423528226 M445.28360849319404,292.52523423528226 L449.8315893139878,296.9487282210232 M449.8315893139878,296.9487282210232 L453.48484445168646,301.621451654175 M453.48484445168646,301.621451654175 L456.1993835698509,306.4893026158798 M456.1993835698509,306.4893026158798 L457.94196211219605,311.4957467681278 M457.94196211219605,311.4957467681278 L458.690580347032,316.5824449055843 M458.690580347032,316.5824449055843 L458.43475957009076,321.68992324051607 M458.43475957009076,321.68992324051607 L457.1757945583522,326.75825872710885 M457.1757945583522,326.75825872710885 L454.9267961517934,331.7277858459763 M454.9267961517934,331.7277858459763 L451.71260968244746,336.5398081993381 M451.71260968244746,336.5398081993381 L447.56959737024755,341.1373064517469 M447.56959737024755,341.1373064517469 L442.54529452994115,345.4656296413879 M442.54529452994115,345.4656296413879 L436.69787499303595,349.4731780242584 M436.69787499303595,349.4731780242584 L430.09552608078343,353.1120379369546 M430.09552608078343,353.1120379369546 L422.8156415588893,356.33860364355996 M422.8156415588893,356.33860364355996 L414.9439493890209,359.1141144747744 M414.9439493890209,359.1141144747744 L406.57345963248036,361.405167573879 M406.57345963248036,361.405167573879 L397.80335878490524,363.18413838481626 M397.80335878490524,363.18413838481626 L388.7377844534806,364.4295556777553 M388.7377844534806,364.4295556777553 L379.4845516797589,365.12637152799306 M379.4845516797589,365.12637152799306 L370.15381313284496,365.26615995809334 M370.15381313284496,365.26615995809334 L360.8567043479793,364.84722115375774 M360.8567043479793,364.84722115375774 L351.70392482953616,363.874632024038 M351.70392482953616,363.874632024038 L342.80436669517957,362.36015094562066 M342.80436669517957,362.36015094562066 L334.26380933396183,360.32206422488684 M334.26380933396183,360.32206422488684 L326.1835659942441,357.78495703090846 M326.1835659942441,357.78495703090846 L318.65921758144407,354.7794037074529 M318.65921758144407,354.7794037074529 L311.77954382134726,351.34152750415444 M312.3111439362557,417.38501697442575 L306.17788584438773,413.54120083954956 M306.17788584438773,413.54120083954956 L300.83928573225035,409.35079027365623 M300.83928573225035,409.35079027365623 L296.357335251123,404.86382729158885 M296.357335251123,404.86382729158885 L292.7837006346714,400.13370970633514 M292.7837006346714,400.13370970633514 L290.15908177493196,395.2165782529232 M290.15908177493196,395.2165782529232 L288.5128127698,390.17061408112573 M288.5128127698,390.17061408112573 L287.86260546521487,385.0553072788728 M287.86260546521487,385.0553072788728 L288.2144183602146,379.93076992642676 M288.2144183602146,379.93076992642676 L289.56241480124754,374.857028986682 M289.56241480124754,374.857028986682 L291.8891614454509,369.8933073955442 M291.8891614454509,369.8933073955442 L295.16589605072124,365.0973510270701 M295.16589605072124,365.0973510270701 L299.3529350784082,360.5247711943398 M299.3529350784082,360.5247711943398 L304.4001775222941,356.22842682897965 M304.4001775222941,356.22842682897965 L310.2477653315259,352.2578328003516 M310.2477653315259,352.2578328003516 L316.8267944329715,348.65862935078724 M316.8267944329715,348.65862935078724 L324.0601635997945,345.47207310559276 M324.0601635997945,345.47207310559276 L331.8634425342203,342.7346153804426 M331.8634425342203,342.7346153804426 L340.1458734508575,340.4775027318208 M340.1458734508575,340.4775027318208 L348.81138264923504,338.7264615649946 M348.81138264923504,338.7264615649946 L357.75967201822,337.5014157549498 M357.75967201822,337.5014157549498 L366.88732551796,336.8162917062331 M366.88732551796,336.8162917062331 L376.08895242557577,336.67887609936844 M376.08895242557577,336.67887609936844 L385.258350189041,337.0907329372765 M385.258350189041,337.0907329372765 L394.28967729211365,338.0471753199182 M394.28967729211365,338.0471753199182 L403.0786104003645,339.53734140547976 M403.0786104003645,339.53734140547976 L411.5235018595423,341.5442757706834 M411.5235018595423,341.5442757706834 L419.52648888515455,344.0451284736876 M419.52648888515455,344.0451284736876 L426.9946239848615,347.0113728009919 M426.9946239848615,347.0113728009919 L433.84087890661374,350.4091201929129 M311.77954382134726,351.34152750415444 L305.62534174001337,347.51259259912365 M305.62534174001337,347.51259259912365 L300.2685794484787,343.33841789129264 M300.2685794484787,343.33841789129264 L295.7714574160538,338.86885456737366 M295.7714574160538,338.86885456737366 L292.1858135140848,334.15709612344074 M292.1858135140848,334.15709612344074 L289.5524801117,329.2590677048998 M289.5524801117,329.2590677048998 L287.90088354158445,324.2327261919157 M287.90088354158445,324.2327261919157 L287.2487871022604,319.13733146410186 M287.2487871022604,319.13733146410186 L287.6021598841917,314.03276206313274 M287.6021598841917,314.03276206313274 L288.9551352102971,308.9788108125368 M288.9551352102971,308.9788108125368 L291.29021017243963,304.03446872735447 M291.29021017243963,304.03446872735447 L294.5785147127966,299.2572546622234 M294.5785147127966,299.2572546622234 L298.78022096507254,294.702560473726 M298.78022096507254,294.702560473726 L303.84504910401625,290.4230357407555 M303.84504910401625,290.4230357407555 L309.7129302673916,286.46799855047993 M309.7129302673916,286.46799855047993 L316.3147201811052,282.88290718186573 M316.3147201811052,282.88290718186573 L323.5730510304267,279.7088532920458 M323.5730510304267,279.7088532920458 L331.4032025323077,276.98214206182274 M331.4032025323077,276.98214206182274 L339.7141068917574,274.7338944922643 M339.7141068917574,274.7338944922643 L348.40936370847743,272.98973341601913 M348.40936370847743,272.98973341601913 L357.3883350260718,271.76950237147867 M357.3883350260718,271.76950237147867 L366.5472553542925,271.08707154530714 M366.5472553542925,271.08707154530714 L375.78037853917704,270.9501961621355 M375.78037853917704,270.9501961621355 L384.98114428021063,271.3604339050687 M384.98114428021063,271.3604339050687 L394.0433546795428,272.31311681099663 M394.0433546795428,272.31311681099663 L402.862335019298,273.7974269041552 M402.862335019298,273.7974269041552 L411.33609491151697,275.7964771701746 M411.33609491151697,275.7964771701746 L419.36644100414435,278.2875097356917 M419.36644100414435,278.2875097356917 L426.8601110385191,281.2421126286964 M426.8601110385191,281.2421126286964 L433.72978105466785,284.6265333118587" stroke="black"  stroke-width="4"  fill="red"/></svg>