<svg viewBox="0 0 800 800" xmlns="http://www.w3.org/2000/svg"><path d="M351.84369734479816,80.76279654456977 L353.8442094772326,500.02642374325507 M351.84369734479816,80.76279654456977 L301.8077710867063,108.98034627279543 M301.8077710867063,108.98034627279543 L304.41707965152546,528.5943611434143 M353.8442094772326,500.02642374325507 L304.41707965152546,528.5943611434143 M409.3286691004991,36.88019832355104 L400.7964325059115,33.96969301232059 M400.7964325059115,33.96969301232059 L392.56468707127266,32.51828248009622 M392.56468707127266,32.51828248009622 L384.7754874011834,32.5494920774056 M384.7754874011834,32.5494920774056 L377.56290145457547,34.06102082728398 M377.56290145457547,34.06102082728398 L371.0506854217757,37.02503629343539 M371.0506854217757,37.02503629343539 L365.35023057521653,41.388612944734405 M365.35023057521653,41.388612944734405 L360.55864285844905,47.074962703812844 M360.55864285844905,47.074962703812844 L356.7572231626674,53.98468837450275 M356.7572231626674,53.98468837450275 L354.01010531355314,61.997711351352166 M354.01010531355314,61.997711351352166 L352.36323010761004,70.97536735721911 M352.36323010761004,70.97536735721911 L351.84369734479816,80.76279654456977 M353.8442094772326,500.02642374325507 L354.5036619456513,510.67181963033437 M354.5036619456513,510.67181963033437 L356.3708586213713,521.8257239148948 M356.3708586213713,521.8257239148948 L359.41021436757404,533.280197197086 M359.41021436757404,533.280197197086 L363.56455990487586,544.8219864220055 M363.56455990487586,544.8219864220055 L368.7562009005144,556.2364558269362 M368.7562009005144,556.2364558269362 L374.88843218158263,567.3114135354144 M374.88843218158263,567.3114135354144 L381.8471881453223,577.8410169528067 M381.8471881453223,577.8410169528067 L389.5032038005308,587.6293732652309 M389.5032038005308,587.6293732652309 L397.71432417953343,596.4942325441141 M397.71432417953343,596.4942325441141 L406.32799368787516,604.2702272724371 M406.32799368787516,604.2702272724371 L415.18411051684865,610.811856551592 M415.18411051684865,610.811856551592 L419.27914268177346,613.3630526433956 M419.27914268177346,613.3630526433956 L616.2350361581276,728.9551368450313 M616.2350361581276,728.9551368450313 L624.522154603346,733.2238197104546 M624.522154603346,733.2238197104546 L633.053532348642,736.3460865324428 M633.053532348642,736.3460865324428 L641.3052110399814,738.0442386318928 M641.3052110399814,738.0442386318928 L649.1351833751338,738.2875204665597 M649.1351833751338,738.2875204665597 L656.4083349637446,737.0700915620337 M656.4083349637446,737.0700915620337 L662.9988122625531,734.4111107185897 M662.9988122625531,734.4111107185897 L668.792182595445,730.3546887359721 M668.792182595445,730.3546887359721 L673.6875252804683,724.9690609989939 M673.6875252804683,724.9690609989939 L677.5991667637343,718.3456979821588 M677.5991667637343,718.3456979821588 L680.4582968628762,710.5977071569343 M680.4582968628762,710.5977071569343 L682.2142658550065,701.8579965214929 M682.2142658550065,701.8579965214929 L682.8355032957318,692.2770629936322 M684.8809710516381,270.6774276552811 L682.8355032957318,692.2770629936322 M684.8809710516381,270.6774276552811 L684.3003296327436,259.70888749332124 M684.3003296327436,259.70888749332124 L682.4658033107863,248.2198863006322 M682.4658033107863,248.2198863006322 L679.4112002691361,236.42739995281053 M679.4112002691361,236.42739995281053 L675.1936572429104,224.55449761877446 M675.1936572429104,224.55449761877446 L669.8926064010848,212.82596483406655 M669.8926064010848,212.82596483406655 L663.6081836278098,201.46399556943823 M663.6081836278098,201.46399556943823 L656.4594160465796,190.6837876113287 M656.4594160465796,190.6837876113287 L648.5818056133045,180.68947581691512 M648.5818056133045,180.68947581691512 L640.1247051254239,171.67001439409688 M640.1247051254239,171.67001439409688 L631.2484685059109,163.79560066173218 M631.2484685059109,163.79560066173218 L622.1212079835022,157.21446017869312 M622.1212079835022,157.21446017869312 L617.9011996264168,154.66506046744755 M617.9011996264168,154.66506046744755 L417.6350488826644,40.98460015776135 M417.6350488826644,40.98460015776135 L409.3286691004991,36.88019832355104 M409.3286691004991,36.88019832355104 L359.180265381912,65.1419497532346 M359.180265381912,65.1419497532346 L350.65097165500106,62.21684300228213 M350.65097165500106,62.21684300228213 L342.4240476339494,60.752511478990016 M342.4240476339494,60.752511478990016 L334.6414628013796,60.77269965110207 M334.6414628013796,60.77269965110207 L327.43716836981355,62.27529182575137 M327.43716836981355,62.27529182575137 L320.93477457913286,65.23260422382157 M320.93477457913286,65.23260422382157 L315.2455000008951,69.59182107075054 M315.2455000008951,69.59182107075054 L310.466254669417,75.27622373008683 M310.466254669417,75.27622373008683 L306.67812363306086,82.18644327830577 M306.67812363306086,82.18644327830577 L303.9450090903732,90.2023881197141 M303.9450090903732,90.2023881197141 L302.31260854885545,99.18534019433105 M302.31260854885545,99.18534019433105 L301.8077710867063,108.98034627279543 M304.41707965152546,528.5943611434143 L305.091457569245,539.2493209335487 M305.091457569245,539.2493209335487 L306.9732655997979,550.4149521748343 M306.9732655997979,550.4149521748343 L310.0266459748962,561.8830979236127 M310.0266459748962,561.8830979236127 L314.1941685877907,573.4402525151822 M314.1941685877907,573.4402525151822 L319.39789490186376,584.8714969677735 M319.39789490186376,584.8714969677735 L325.5408963698932,595.9643305784602 M325.5408963698932,595.9643305784602 L332.50890898524506,606.5125815693241 M332.50890898524506,606.5125815693241 L340.1724975220801,616.3200133477651 M340.1724975220801,616.3200133477651 L348.3893681103508,625.2040236956152 M348.3893681103508,625.2040236956152 L357.00685990524266,632.9988903300025 M357.00685990524266,632.9988903300025 L365.86480112114083,639.5587615422455 M367.4856364078773,69.26166096465903 L359.180265381912,65.1419497532346 M365.86480112114083,639.5587615422455 L369.9599912936975,642.1180141836539 M567.7512271868401,183.3252103005905 L367.4856364078773,69.26166096465903 M369.9599912936975,642.1180141836539 L566.9153520257396,758.0931746815734 M571.9714946516175,185.88284329794834 L567.7512271868401,183.3252103005905 M566.9153520257396,758.0931746815734 L575.2016840613311,762.377550416533 M634.8441401178474,299.53354432489004 L634.2481699604762,288.55474516156835 M634.2481699604762,288.55474516156835 L632.3985733658762,277.0532250404781 M632.3985733658762,277.0532250404781 L629.3294427778121,265.24619744166824 M629.3294427778121,265.24619744166824 L625.0981899673316,253.35700868876103 M625.0981899673316,253.35700868876103 L619.7845074705112,241.6107554855074 M619.7845074705112,241.6107554855074 L613.4887719014005,230.22997066371298 M613.4887719014005,230.22997066371298 L606.3302264765732,219.43021182681946 M606.3302264765732,219.43021182681946 L598.4445605208546,209.4159873046169 M598.4445605208546,209.4159873046169 L589.9812814359254,200.37663082831764 M589.9812814359254,200.37663082831764 L581.1008618765032,192.48271788986696 M581.1008618765032,192.48271788986696 L571.9714946516175,185.88284329794834 M575.2016840613311,762.377550416533 L583.7304254221278,765.5149477670075 M583.7304254221278,765.5149477670075 L591.9776571664207,767.2266677010468 M591.9776571664207,767.2266677010468 L599.8014466639611,767.4817175199037 M599.8014466639611,767.4817175199037 L607.066783592155,766.2740495580474 M607.066783592155,766.2740495580474 L613.6479460363892,763.6226491952355 M613.6479460363892,763.6226491952355 L619.4306587124744,759.5714909892993 M619.4306587124744,759.5714909892993 L624.3141812779456,754.1887139337668 M624.3141812779456,754.1887139337668 L628.2130408976934,747.5657340387097 M628.2130408976934,747.5657340387097 L631.0586450269939,739.8156475266005 M631.0586450269939,739.8156475266005 L632.8005749778351,731.0713949341111 M632.8005749778351,731.0713949341111 L633.407500992239,721.4835491511631 M633.407500992239,721.4835491511631 L634.8441401178474,299.53354432489004 M633.9534699072359,559.6844297603125 L303.4212599510528,367.683096522219 M634.2799532589842,463.79015516564186 L633.9534699072359,559.6844297603125 M634.2799532589842,463.79015516564186 L302.82826932380544,272.31961862870656 M303.4212599510528,367.683096522219 L302.82826932380544,272.31961862870656 M415.18411051684865,610.811856551592 L365.86480112114083,639.5587615422455 M419.27914268177346,613.3630526433956 L369.9599912936975,642.1180141836539 M616.2350361581276,728.9551368450313 L566.9153520257396,758.0931746815734 M624.522154603346,733.2238197104546 L575.2016840613311,762.377550416533 M682.8355032957318,692.2770629936322 L633.407500992239,721.4835491511631 M684.8809710516381,270.6774276552811 L634.8441401178474,299.53354432489004 M622.1212079835022,157.21446017869312 L571.9714946516175,185.88284329794834 M617.9011996264168,154.66506046744755 L567.7512271868401,183.3252103005905 M417.6350488826644,40.98460015776135 L367.4856364078773,69.26166096465903 M513.717783644062,630.0345950412247 L633.9534699072359,559.6844297603125 M303.4212599510528,367.683096522219 L183.26545412484927,436.52430411838975 M513.717783644062,630.0345950412247 L497.97471418378564,638.1048270541478 M497.97471418378564,638.1048270541478 L481.06164409984393,645.3351528720955 M481.06164409984393,645.3351528720955 L463.1121595454782,651.6667984184292 M463.1121595454782,651.6667984184292 L444.26854175565745,657.0482050700327 M444.26854175565745,657.0482050700327 L424.6807254405241,661.4354388542647 M424.6807254405241,661.4354388542647 L404.504887996686,664.7926588102739 M404.504887996686,664.7926588102739 L383.90236356696613,667.0923425145897 M383.90236356696613,667.0923425145897 L363.03797643120413,668.3156938021773 M363.03797643120413,668.3156938021773 L342.07890047544333,668.4526613748872 M342.07890047544333,668.4526613748872 L321.1931198573636,667.5021031183601 M321.1931198573636,667.5021031183601 L300.54794438237866,665.4718481417551 M300.54794438237866,665.4718481417551 L280.30866357639417,662.3785214384752 M280.30866357639417,662.3785214384752 L260.6371112186243,658.247446644951 M260.6371112186243,658.247446644951 L241.69025638505366,653.1123917102291 M241.69025638505366,653.1123917102291 L223.61888422538587,647.0153144835406 M223.61888422538587,647.0153144835406 L206.5663977751259,640.0058846420989 M206.5663977751259,640.0058846420989 L190.66757549646854,632.1411077018263 M190.66757549646854,632.1411077018263 L176.04748760392368,623.4847795482788 M176.04748760392368,623.4847795482788 L162.82051296933713,614.1069203684006 M162.82051296933713,614.1069203684006 L151.08944195920958,604.0831516769267 M151.08944195920958,604.0831516769267 L140.94470432846578,593.4940427483891 M140.94470432846578,593.4940427483891 L132.46365434372564,582.4244200068731 M132.46365434372564,582.4244200068731 L125.71015996378497,570.9626087667166 M125.71015996378497,570.9626087667166 L120.73402475195155,559.1997240564733 M120.73402475195155,559.1997240564733 L117.57079047745043,547.228917271068 M117.57079047745043,547.228917271068 L116.24153280946206,535.1445945253754 M116.24153280946206,535.1445945253754 L116.75290836074055,523.0416432496997 M116.75290836074055,523.0416432496997 L119.0970472174771,511.0147303563945 M119.0970472174771,511.0147303563945 L123.25182198779447,499.1575392566053 M123.25182198779447,499.1575392566053 L129.18125847357152,487.56199029578715 M129.18125847357152,487.56199029578715 L136.83566018621065,476.3177009462427 M136.83566018621065,476.3177009462427 L146.152359324788,465.5111514736122 M146.152359324788,465.5111514736122 L157.0561142365877,455.22518664157906 M157.0561142365877,455.22518664157906 L169.4598827099308,445.53832993135944 M169.4598827099308,445.53832993135944 L183.26545412484927,436.52430411838975 M414.77917026763964,493.8288458894287 L423.09748598835034,499.42811269925136 M423.09748598835034,499.42811269925136 L429.9608499226721,505.66513216741436 M429.9608499226721,505.66513216741436 L435.22858409070227,512.4141635913709 M435.22858409070227,512.4141635913709 L438.7919162667491,519.5388503938027 M438.7919162667491,519.5388503938027 L440.5763826452981,526.8948753829179 M440.5763826452981,526.8948753829179 L440.5434136991256,534.3328903280078 M440.5434136991256,534.3328903280078 L438.6913506384914,541.7014887018784 M438.6913506384914,541.7014887018784 L435.05568634828245,548.8502858346119 M435.05568634828245,548.8502858346119 L429.7084634084046,555.6330275814996 M429.7084634084046,555.6330275814996 L422.75700690263176,561.9106173390514 M422.75700690263176,561.9106173390514 L414.3418608149509,567.5540330686513 M414.3418608149509,567.5540330686513 L404.6340100239391,572.4470479042072 M404.6340100239391,572.4470479042072 L393.8314142908213,576.488704803463 M393.8314142908213,576.488704803463 L382.15495293223603,579.5954891000788 M382.15495293223603,579.5954891000788 L369.8438595026512,581.7031278275249 M369.8438595026512,581.7031278275249 L357.150721717437,582.7679844887152 M357.150721717437,582.7679844887152 L344.33620672586176,582.767977062676 M344.33620672586176,582.767977062676 L331.663476968786,581.7031315400898 M331.663476968786,581.7031315400898 L319.39277035719965,579.5954965234093 M319.39277035719965,579.5954965234093 L307.77584783786364,576.4887103689721 M307.77584783786364,576.4887103689721 L297.0507015238041,572.4470553214369 M297.0507015238041,572.4470553214369 L287.43662611594533,567.5540404817061 M287.43662611594533,567.5540404817061 L279.12963696134926,561.9106247472928 M279.12963696134926,561.9106247472928 L272.2984946855005,555.6330294322217 M272.2984946855005,555.6330294322217 L267.0812608935733,548.8502858346119 M267.0812608935733,548.8502858346119 L263.58261080541774,541.7014850063697 M263.58261080541774,541.7014850063697 L261.8717870944472,534.3328866356367 M261.8717870944472,534.3328866356367 L261.98135606074015,526.8948790721229 M261.98135606074015,526.8948790721229 L263.90680823604305,519.5388467077273 M263.90680823604305,519.5388467077273 L267.606692409433,512.4141635913709 M267.606692409433,512.4141635913709 L273.00376333050656,505.66513032732604 M273.00376333050656,505.66513032732604 L279.98665751325734,499.42811269925136 M279.98665751325734,499.42811269925136 L288.4122840455836,493.8288458894287 M288.4122840455836,493.8288458894287 L298.10880892732234,488.9799801018322 M298.10880892732234,488.9799801018322 L308.87918985811314,484.9788956399154 M308.87918985811314,484.9788956399154 L320.50515730121435,481.9058201948775 M320.50515730121435,481.9058201948775 L332.75156841091734,479.8222958190924 M332.75156841091734,479.8222958190924 L345.3710756728813,478.7700054425756 M345.3710756728813,478.7700054425756 L358.108989959666,478.7700054425756 M358.108989959666,478.7700054425756 L370.7083173038284,479.82229214989127 M370.7083173038284,479.82229214989127 L382.91480369463926,481.90581285470665 M382.91480369463926,481.90581285470665 L394.4818719675841,484.9788938042205 M394.4818719675841,484.9788938042205 L405.17557464624053,488.9799801018322 M405.17557464624053,488.9799801018322 L414.77917026763964,493.8288458894287 M513.707335787414,533.9488027625 L634.2799532589842,463.79015516564186 M513.717783644062,630.0345950412247 L513.707335787414,533.9488027625 M302.82826932380544,272.31961862870656 L182.33580906082707,340.96914778438946 M182.33580906082707,340.96914778438946 L168.49132344764314,349.958188213479 M168.49132344764314,349.958188213479 L156.05246518609232,359.6182237008915 M156.05246518609232,359.6182237008915 L145.11772554401452,369.87574152700324 M145.11772554401452,369.87574152700324 L135.77439859435458,380.6524409195387 M135.77439859435458,380.6524409195387 L128.09794710315612,391.86571093494047 M128.09794710315612,391.86571093494047 L122.15122680450327,403.4293141485917 M122.15122680450327,403.4293141485917 L117.98408750935607,415.2538834051318 M117.98408750935607,415.2538834051318 L115.63261963886691,427.2477537149213 M115.63261963886691,427.2477537149213 L115.11902894836192,439.31750047421554 M115.11902894836192,439.31750047421554 L116.45122425332812,451.36871682456183 M116.45122425332812,451.36871682456183 L119.62254715922387,463.30677452243714 M119.62254715922387,463.30677452243714 L124.6118793661139,475.0375238724934 M124.6118793661139,475.0375238724934 L131.38359503467905,486.4680650814921 M131.38359503467905,486.4680650814921 L139.8877652307782,497.5075278762648 M139.8877652307782,497.5075278762648 L150.06035548343618,508.0678229417535 M150.06035548343618,508.0678229417535 L161.82380515355848,518.064349344063 M161.82380515355848,518.064349344063 L175.08743912325292,527.4167509343122 M175.08743912325292,527.4167509343122 L189.74818447009565,536.0496053121383 M189.74818447009565,536.0496053121383 L205.69134461037794,543.8930758643121 M205.69134461037794,543.8930758643121 L222.7914989324874,550.8835333006211 M222.7914989324874,550.8835333006211 L240.91348868904092,556.9641204388029 M240.91348868904092,556.9641204388029 L259.913503833048,562.0852964378255 M259.913503833048,562.0852964378255 L279.6403291699417,566.2052119928803 M279.6403291699417,566.2052119928803 L299.93654617869674,569.2901863128443 M299.93654617869674,569.2901863128443 L320.6398562788073,571.3149610109476 M320.6398562788073,571.3149610109476 L341.58449413222934,572.2629538760889 M341.58449413222934,572.2629538760889 L362.60266757160423,572.1263559371071 M362.60266757160423,572.1263559371071 L383.52590775537476,570.9063063694325 M383.52590775537476,570.9063063694325 L404.18655842409294,568.612830616901 M404.18655842409294,568.612830616901 L424.41932001370753,565.2646764662989 M424.41932001370753,565.2646764662989 L444.0623938144199,560.8892953925931 M444.0623938144199,560.8892953925931 L462.95915365959337,555.522435801216 M462.95915365959337,555.522435801216 L480.9592352547163,549.2079179378388 M480.9592352547163,549.2079179378388 L497.91995121134374,541.9971665886742 M497.91995121134374,541.9971665886742 L513.707335787414,533.9488027625 M414.4926414919679,398.11529596488396 L422.83409030844734,403.69914267759066 M422.83409030844734,403.69914267759066 L429.7165296079882,409.91899758418003 M429.7165296079882,409.91899758418003 L434.998887709564,416.6494694633319 M434.998887709564,416.6494694633319 L438.5720861396796,423.7545795838246 M438.5720861396796,423.7545795838246 L440.3614493967676,431.09040937062565 M440.3614493967676,431.09040937062565 L440.3282957509693,438.50802171779117 M440.3282957509693,438.50802171779117 L438.4709571371998,445.85642545361753 M438.4709571371998,445.85642545361753 L434.8250213887259,452.98564703636106 M434.8250213887259,452.98564703636106 L429.46272917237513,459.74983080187314 M429.46272917237513,459.74983080187314 L422.49170377437713,466.0102578912638 M422.49170377437713,466.0102578912638 L414.05288212004086,471.6382555791774 M414.05288212004086,471.6382555791774 L404.3177292293691,476.5179107914597 M404.3177292293691,476.5179107914597 L393.48476255318616,480.5485383775835 M393.48476255318616,480.5485383775835 L381.77548514826793,483.6468481154271 M381.77548514826793,483.6468481154271 L369.42980724694837,485.74873948017154 M369.42980724694837,485.74873948017154 L356.70103168703736,486.8106929055763 M356.70103168703736,486.8106929055763 L343.8505637999436,486.8106854997824 M343.8505637999436,486.8106854997824 L331.1423109403863,485.7487431826139 M331.1423109403863,485.7487431826139 L318.83724678672024,483.64685551851227 M318.83724678672024,483.64685551851227 L307.1878426962928,480.54854392790844 M307.1878426962928,480.54854392790844 L296.4327604572296,476.51791818844345 M296.4327604572296,476.51791818844345 L286.7919094991247,471.6382629719861 M286.7919094991247,471.6382629719861 L278.46185189495145,466.01026527925893 M278.46185189495145,466.01026527925893 L271.61181584493164,459.74983264753365 M271.61181584493164,459.74983264753365 L266.38024192655064,452.98564703636106 M266.38024192655064,452.98564703636106 L262.8720885990795,445.85642176823256 M262.8720885990795,445.85642176823256 L261.15678087612025,438.508018035544 M261.15678087612025,438.508018035544 L261.2669637085502,431.0904130497068 M261.2669637085502,431.0904130497068 L263.19810224121915,423.7545759078731 M263.19810224121915,423.7545759078731 L266.9086169982798,416.6494694633318 M266.9086169982798,416.6494694633318 L272.3210355486268,409.91899574915385 M272.3210355486268,409.91899574915385 L279.3236736531557,403.69914267759066 M279.3236736531557,403.69914267759066 L287.7730332780935,398.11529596488396 M287.7730332780935,398.11529596488396 L297.49679562067524,393.27979185662605 M297.49679562067524,393.27979185662605 L308.2973659266142,389.28973859789505 M308.2973659266142,389.28973859789505 L319.95586562788617,386.22513928234963 M319.95586562788617,386.22513928234963 L332.23649819163904,384.14736339314004 M332.23649819163904,384.14736339314004 L344.8912303909526,383.0979768381479 M344.8912303909526,383.0979768381479 L357.66466839905013,383.0979768381479 M357.66466839905013,383.0979768381479 L370.2991079992977,384.1473597340635 M370.2991079992977,384.1473597340635 L382.5395928033155,386.22513196242795 M382.5395928033155,386.22513196242795 L394.1388642778163,389.2897367672624 M394.1388642778163,389.2897367672624 L404.8623278388781,393.27979185662605 M404.8623278388781,393.27979185662605 L414.4926414919679,398.11529596488396 M183.26545412484927,436.52430411838975 L182.33580906082707,340.96914778438946 M414.77917026763964,493.8288458894287 L414.4926414919679,398.11529596488396" stroke="black"  stroke-width="4"  fill="red"/>
<path d="M415.0129363132301,571.9172613473052 L414.44089635487376,380.83008350756904 M414.44089635487376,380.83008350756904 L422.7865227995078,386.41112702389444 M422.7865227995078,386.41112702389444 L429.6724069308076,392.62786158929265 M429.6724069308076,392.62786158929265 L434.9574059674002,399.35495950840556 M434.9574059674002,399.35495950840556 L438.532386127964,406.4565107339411 M438.532386127964,406.4565107339411 L440.3226336777824,413.78866915272596 M440.3226336777824,413.78866915272596 L440.2894466212619,421.2025723968948 M440.2894466212619,421.2025723968948 L438.43115521548515,428.54730480448734 M438.43115521548515,428.54730480448734 L434.7833644382878,435.67296757754565 M434.7833644382878,435.67296757754565 L429.41835072784687,442.4337774987827 M429.41835072784687,442.4337774987827 L422.44379122289615,448.69108438843375 M422.44379122289615,448.69108438843375 L414.0006938116457,454.31627903299534 M414.0006938116457,454.31627903299534 L404.260610226078,459.1935054132992 M404.260610226078,459.1935054132992 L393.42215863501804,463.22212781655054 M393.42215863501804,463.22212781655054 L381.70695474276357,466.31889683189735 M381.70695474276357,466.31889683189735 L369.3550309903858,468.419743290569 M369.3550309903858,468.419743290569 L356.6198193679592,469.481168888782 M356.6198193679592,469.481168888782 L343.76285852388355,469.4811614866688 M343.76285852388355,469.4811614866688 L331.0481903454261,468.41974699117094 M331.0481903454261,468.41974699117094 L318.7369213910987,466.3189042313019 M318.7369213910987,466.3189042313019 L307.0816513181203,463.2221333641149 M307.0816513181203,463.2221333641149 L296.32116285654877,459.19351280660214 M296.32116285654877,459.19351280660214 L286.6754764533024,454.3162864221233 M286.6754764533024,454.3162864221233 L278.3412529160304,448.6910917727479 M278.3412529160304,448.6910917727479 L271.4878048836292,442.433779343523 M271.4878048836292,442.433779343523 L266.25364136952817,435.67296757754565 M266.25364136952817,435.67296757754565 L262.74377197872803,428.54730112094285 M262.74377197872803,428.54730112094285 L261.02765464767003,421.2025687164882 M261.02765464767003,421.2025687164882 L261.1379485237083,413.7886728299666 M261.1379485237083,413.7886728299666 L263.0701141593649,406.45650705983013 M263.0701141593649,406.45650705983013 L266.7825489075559,399.35495950840556 M266.7825489075559,399.35495950840556 L272.1977393030358,392.62785975518676 M272.1977393030358,392.62785975518676 L279.2039431750257,386.41112702389444 M279.2039431750257,386.41112702389444 L287.6575889618157,380.83008350756904 M287.6575889618157,380.83008350756904 L297.38627030557575,375.9970083844334 M297.38627030557575,375.9970083844334 L308.19229268119625,372.00896044941254 M308.19229268119625,372.00896044941254 L319.85666753392695,368.94590197344945 M319.85666753392695,368.94590197344945 L332.1434802810867,366.8691710741132 M332.1434802810867,366.8691710741132 L344.8045738635524,365.82031238999554 M344.8045738635524,365.82031238999554 L357.5844271943492,365.82031238999554 M357.5844271943492,365.82031238999554 L370.2252077948959,366.869167416877 M370.2252077948959,366.869167416877 L382.471832436539,368.94589465720884 M382.471832436539,368.94589465720884 L394.07691953952695,372.0089586197002 M394.07691953952695,372.0089586197002 L404.80575766023725,375.9970083844334 M404.80575766023725,375.9970083844334 L414.44089635487376,380.83008350756904 M415.0129363132301,571.9172613473052 L405.43113910488745,567.0576052410352 M405.43113910488745,567.0576052410352 L394.76171736491847,563.0476105426826 M394.76171736491847,563.0476105426826 L383.2209225911054,559.9676845251531 M383.2209225911054,559.9676845251531 L371.04217428949346,557.8795215100711 M371.04217428949346,557.8795215100711 L358.4714936978942,556.8248897585825 M358.4714936978942,556.8248897585825 L345.7625617583849,556.8248897585825 M345.7625617583849,556.8248897585825 L333.17179294860523,557.8795251874485 M333.17179294860523,557.8795251874485 L320.953301437659,559.9676918816767 M320.953301437659,559.9676918816767 L309.35387527813714,563.0476123824656 M309.35387527813714,563.0476123824656 L298.6081239904668,567.0576052410352 M298.6081239904668,567.0576052410352 L288.9338202288395,571.9172613473052 M288.9338202288395,571.9172613473052 L280.5275555809901,577.5289806492228 M280.5275555809901,577.5289806492228 L273.5607685393271,583.7798593598013 M273.5607685393271,583.7798593598013 L268.17621789514607,590.5438800461131 M268.17621789514607,590.5438800461131 L264.4850054870192,597.6843717459165 M264.4850054870192,597.6843717459165 L262.5641912664137,605.0567119745197 M262.5641912664137,605.0567119745197 L262.4551218505169,612.5111946244042 M262.4551218505169,612.5111946244042 L264.1622860485477,619.8960999526 M264.1622860485477,619.8960999526 L267.6531817789627,627.0607076323149 M267.6531817789627,627.0607076323149 L272.858715177096,633.8584362235056 M272.858715177096,633.8584362235056 L279.6744421428355,640.1498897048157 M279.6744421428355,640.1498897048157 L287.9626102844478,645.8057547441313 M287.9626102844478,645.8057547441313 L297.5548404645804,650.7095567148206 M297.5548404645804,650.7095567148206 L308.25556338742547,654.7601172249992 M308.25556338742547,654.7601172249992 L319.84598587111714,657.8737460046739 M319.84598587111714,657.8737460046739 L332.0886621385029,659.9860215897968 M332.0886621385029,659.9860215897968 L344.732410803313,661.053211232465 M344.732410803313,661.053211232465 L357.5175941953926,661.0532186748503 M357.5175941953926,661.0532186748503 L370.1816575727853,659.9860178690587 M370.1816575727853,659.9860178690587 L382.4645359920118,657.8737385649965 M382.4645359920118,657.8737385649965 L394.11422513220646,654.7601116472299 M394.11422513220646,654.7601116472299 L404.89204347306185,650.7095492812439 M404.89204347306185,650.7095492812439 L414.5776205496805,645.8057473147287 M414.5776205496805,645.8057473147287 L422.9734515735461,640.1498822802262 M422.9734515735461,640.1498822802262 L429.90894338008445,633.8584343686964 M429.90894338008445,633.8584343686964 L435.24387256592246,627.0607076323149 M435.24387256592246,627.0607076323149 L438.87115734306104,619.8961036562832 M438.87115734306104,619.8961036562832 L440.7189167543402,612.5111983249501 M440.7189167543402,612.5111983249501 L440.7517353961073,605.0567082771395 M440.7517353961073,605.0567082771395 L438.9712645100003,597.6843754401675 M438.9712645100003,597.6843754401675 L435.4159821009233,590.5438800461131 M435.4159821009233,590.5438800461131 L430.1601792769351,583.7798612039776 M430.1601792769351,583.7798612039776 L423.3123784207044,577.5289806492228 M423.3123784207044,577.5289806492228 L415.0129363132301,571.9172613473052" stroke="black"  stroke-width="4"  fill="red"/>
<path d="M414.0945948452122,265.14974125841076 L413.8624304613855,187.59635315626406 M413.8624304613855,187.59635315626406 L422.2547581205178,193.14567547072573 M422.2547581205178,193.14567547072573 L429.17915147757947,199.32709955560392 M429.17915147757947,199.32709955560392 L434.49367289797124,206.0160164617872 M434.49367289797124,206.0160164617872 L438.0885702740234,213.07729328868402 M438.0885702740234,213.07729328868402 L439.8887024097827,220.36790386410985 M439.8887024097827,220.36790386410985 L439.8551406998957,227.7398315691906 M439.8551406998957,227.7398315691906 L437.9861965870629,235.04301527660135 M437.9861965870629,235.04301527660135 L434.31766665935584,242.12840210784546 M434.31766665935584,242.12840210784546 L428.92222721035114,248.85102882008914 M428.92222721035114,248.85102882008914 L421.9081573861491,255.07302260993424 M421.9081573861491,255.07302260993424 L413.41725838687444,260.6664931923267 M413.41725838687444,260.6664931923267 L403.62205134534,265.51623042052813 M403.62205134534,265.51623042052813 L392.72228043456016,269.52215825096823 M392.72228043456016,269.52215825096823 L380.9408207506934,272.6014893023606 M380.9408207506934,272.6014893023606 L368.519071034115,274.6905094027424 M368.519071034115,274.6905094027424 L355.71190721143273,275.74596097622555 M355.71190721143273,275.74596097622555 L342.7823584319014,275.74595361577116 M342.7823584319014,275.74595361577116 L329.99597066950105,274.690513082515 M329.99597066950105,274.690513082515 L317.6153360847213,272.6014966601064 M317.6153360847213,272.6014966601064 L305.8944887117785,269.52216376728853 M305.8944887117785,269.52216376728853 L295.07356337340013,265.51623777217236 M295.07356337340013,265.51623777217236 L285.3738216260824,260.66650053979606 M285.3738216260824,260.66650053979606 L276.99302803986086,255.07302995259005 M276.99302803986086,255.07302995259005 L270.1014391607334,248.8510306544149 M270.1014391607334,248.8510306544149 L264.83832897635307,242.12840210784537 M264.83832897635307,242.12840210784537 L261.30927874484206,235.0430116138857 M261.30927874484206,235.0430116138857 L259.584114315058,227.73982790961247 M259.584114315058,227.73982790961247 L259.69565338624085,220.3679075205221 M259.69565338624085,220.3679075205221 L261.63930501378593,213.07728963540126 M261.63930501378593,213.07728963540126 L265.37320736067284,206.0160164617872 M265.37320736067284,206.0160164617872 L270.819388092585,199.3270977319119 M270.819388092585,199.3270977319119 L277.8654572907003,193.14567547072573 M277.8654572907003,193.14567547072573 L286.36702131983174,187.59635315626406 M286.36702131983174,187.59635315626406 L296.15069496910957,182.7907643261941 M296.15069496910957,182.7907643261941 L307.01766833226174,178.82540833769065 M307.01766833226174,178.82540833769065 L318.74772330133266,175.77978564449523 M318.74772330133266,175.77978564449523 L331.10362563190586,173.71487954354672 M331.10362563190586,173.71487954354672 L343.83583398618606,172.67199407142584 M343.83583398618606,172.67199407142584 L356.68740469490507,172.67199407142584 M356.68740469490507,172.67199407142584 L369.39907150924614,173.71487590713733 M369.39907150924614,173.71487590713733 L381.7143333260621,175.779778369908 M381.7143333260621,175.779778369908 L393.38443309739205,178.8254065183917 M393.38443309739205,178.8254065183917 L404.1733530618402,182.7907643261941 M404.1733530618402,182.7907643261941 L413.8624304613855,187.59635315626406 M414.0945948452122,265.14974125841076 L404.4271652343316,260.3330476486513 M404.4271652343316,260.3330476486513 L393.6623585768396,256.35852207458873 M393.6623585768396,256.35852207458873 L382.0183510866049,253.30584971994892 M382.0183510866049,253.30584971994892 L369.7306362569595,251.23616996796733 M369.7306362569595,251.23616996796733 L357.0474191173182,250.19087492738902 M357.0474191173182,250.19087492738902 L344.2246317338844,250.19087492738902 M344.2246317338844,250.19087492738902 L331.52096493826895,251.23617361279094 M331.52096493826895,251.23617361279094 L319.19279147038765,253.30585701136437 M319.19279147038765,253.30585701136437 L307.48909710759216,256.35852389809475 M307.48909710759216,256.35852389809475 L296.6465864620244,260.3330476486513 M296.6465864620244,260.3330476486513 L286.88498416735786,265.14974125841076 M286.88498416735786,265.14974125841076 L278.4026524706992,270.711879381055 M278.4026524706992,270.711879381055 L271.37258371124346,276.9075676613795 M271.37258371124346,276.9075676613795 L265.93884156822503,283.6119122764064 M265.93884156822503,283.6119122764064 L262.21355596313066,290.6894572208924 M262.21355596313066,290.6894572208924 L260.27451503397157,297.9968615423532 M260.27451503397157,297.9968615423532 L260.16347655888336,305.38574127848443 M260.16347655888336,305.38574127848443 L261.8850107793188,312.70571203393655 M261.8850107793188,312.70571203393655 L265.40636359641974,319.8073754869359 M265.40636359641974,319.8073754869359 L270.65785679103425,326.54543157175914 M270.65785679103425,326.54543157175914 L277.53413851047014,332.7816988859383 M277.53413851047014,332.7816988859383 L285.8962417678939,338.3879874400046 M285.8962417678939,338.3879874400046 L295.5742888399214,343.24883161024087 M295.5742888399214,343.24883161024087 L306.3709581447057,347.2639273460817 M306.3709581447057,347.2639273460817 L318.0654862458824,350.3503060837513 M318.0654862458824,350.3503060837513 L330.41828099098416,352.44410097347975 M330.41828099098416,352.44410097347975 L343.1758840468367,353.50195530863573 M343.1758840468367,353.50195530863573 L356.0762995175901,353.5019626859226 M356.0762995175901,353.5019626859226 L368.8545851154014,352.444097285291 M368.8545851154014,352.444097285291 L381.2483099252037,350.3502987091732 M381.2483099252037,350.3502987091732 L393.003177564834,347.26392181713726 M393.003177564834,347.26392181713726 L403.8783376758308,343.24882424176434 M403.8783376758308,343.24882424176434 L413.65142063248084,338.38798007570307 M413.65142063248084,338.38798007570307 L422.12313419202104,332.78169152645063 M422.12313419202104,332.78169152645063 L429.12134629370877,326.5454297332255 M429.12134629370877,326.5454297332255 L434.5045741309481,319.8073754869359 M434.5045741309481,319.8073754869359 L438.16478016650984,312.7057157050678 M438.16478016650984,312.7057157050678 L440.0294485785361,305.38574494647787 M440.0294485785361,305.38574494647787 L440.0628596694661,297.99685787752566 M440.0628596694661,297.99685787752566 L438.26669443282356,290.6894608825902 M438.26669443282356,290.6894608825902 L434.67979051284055,283.6119122764064 M434.67979051284055,283.6119122764064 L429.3771175355307,276.90756948927896 M429.3771175355307,276.90756948927896 L422.46817943918273,270.711879381055 M422.46817943918273,270.711879381055 L414.0945948452122,265.14974125841076" stroke="black"  stroke-width="4"  fill="red"/>
<path d="M459.2850996271797,355.03726551543184 L459.0898790703175,239.4444523526979 M241.31071774134634,480.40850970479886 L240.37687807701886,364.39267692311483 M459.2850996271797,355.03726551543184 L470.3079793386631,362.1333683870058 M470.3079793386631,362.1333683870058 L479.94189992288625,369.8828809063741 M479.94189992288625,369.8828809063741 L488.07298587929654,378.1965688264873 M488.07298587929654,378.1965688264873 L494.6043700383351,386.9784555021268 M494.6043700383351,386.9784555021268 L499.45745491348515,396.1268310692096 M499.45745491348515,396.1268310692096 L502.5728654151783,405.53542365503546 M502.5728654151783,405.53542365503546 L503.91133760725427,415.09458021625517 M503.91133760725427,415.09458021625517 L503.4542086120301,424.69252720302507 M503.4542086120301,424.69252720302507 L501.2038637631997,434.21665894986063 M501.2038637631997,434.21665894986063 L497.18380848044933,443.55486582954927 M497.18380848044933,443.55486582954927 L491.4385183159374,452.59687087733704 M491.4385183159374,452.59687087733704 L484.03304614063796,461.23555900112007 M484.03304614063796,461.23555900112007 L475.05240426115785,469.36827444591944 M475.05240426115785,469.36827444591944 L464.60060617443605,476.898101921356 M464.60060617443605,476.898101921356 L452.79954745534985,483.7350572393405 M452.79954745534985,483.7350572393405 L439.7875622034172,489.7972532698347 M439.7875622034172,489.7972532698347 L425.71786390569105,495.0119066354083 M425.71786390569105,495.0119066354083 L410.7566658108546,499.31629859629976 M410.7566658108546,499.31629859629976 L395.0812064852329,502.6585627452443 M395.0812064852329,502.6585627452443 L378.87756234359694,504.99838755173613 M378.87756234359694,504.99838755173613 L362.3383744590235,506.30752191634446 M362.3383744590235,506.30752191634446 L345.66045771829573,506.5701471561744 M345.66045771829573,506.5701471561744 L329.0423835882955,505.7830721049798 M329.0423835882955,505.7830721049798 L312.6819483876616,503.95582796166065 M312.6819483876616,503.95582796166065 L296.77372640609906,501.1104897502764 M296.77372640609906,501.1104897502764 L281.50674070477055,497.2813888212946 M281.50674070477055,497.2813888212946 L267.062047468135,492.5146839421548 M267.062047468135,492.5146839421548 L253.61047552325846,486.86778133617105 M253.61047552325846,486.86778133617105 L241.31071774134634,480.40850970479886 M459.0898790703175,239.4444523526979 L470.1497013221012,246.51644842136136 M470.1497013221012,246.51644842136136 L479.81592318519813,254.23965680501618 M479.81592318519813,254.23965680501618 L487.97428419797126,262.5251516401982 M487.97428419797126,262.5251516401982 L494.52758713600025,271.2772867537091 M494.52758713600025,271.2772867537091 L499.3969638835946,280.3947011271943 M499.3969638835946,280.3947011271943 L502.5228317343866,289.771485887523 M502.5228317343866,289.771485887523 L503.8657856077651,299.2983609490076 M503.8657856077651,299.2983609490076 L503.40709013755514,308.86393127823385 M503.40709013755514,308.86393127823385 L501.1491289055617,318.35597086566867 M501.1491289055617,318.35597086566867 L497.11547714615426,327.66274640385564 M497.11547714615426,327.66274640385564 L491.350751859494,336.67434948565517 M491.350751859494,336.67434948565517 L483.9202182019994,345.2840214886226 M483.9202182019994,345.2840214886226 L474.90916997798087,353.3894468888816 M474.90916997798087,353.3894468888816 L464.421968526129,360.89403035158097 M464.421968526129,360.89403035158097 L452.5809200828125,367.70808368122954 M452.5809200828125,367.70808368122954 L439.5248274806153,373.74998820390726 M439.5248274806153,373.74998820390726 L425.40742573846205,378.9471984363022 M425.40742573846205,378.9471984363022 L410.39549594245966,383.23720009562334 M410.39549594245966,383.23720009562334 L394.666883858507,386.5682954786986 M394.666883858507,386.5682954786986 L378.408304680105,388.90030393892187 M378.408304680105,388.90030393892187 L361.81306166682447,390.20506598096716 M361.81306166682447,390.20506598096716 L345.07864665411154,390.4668141703136 M345.07864665411154,390.4668141703136 L328.4043140375029,389.682367677157 M328.4043140375029,389.682367677157 L311.9885398545522,387.86122682748936 M311.9885398545522,387.86122682748936 L296.0265660195595,385.02539510161495 M296.0265660195595,385.02539510161495 L280.7080626813661,381.2090924638329 M280.7080626813661,381.2090924638329 L266.2147039126387,376.4583276865649 M266.2147039126387,376.4583276865649 L252.71789919086285,370.8303200703979 M252.71789919086285,370.8303200703979 L240.37687807701886,364.39267692311483 M241.31071774134634,480.40850970479886 L230.3072201243342,473.2143561273094 M230.3072201243342,473.2143561273094 L220.7286691351367,465.37136717866304 M220.7286691351367,465.37136717866304 L212.68631272097923,456.9731698302213 M212.68631272097923,456.9731698302213 L206.272894748493,448.1196773807748 M206.272894748493,448.1196773807748 L201.56150292471457,438.91594413997933 M201.56150292471457,438.91594413997933 L198.6048491477054,429.47085202506594 M198.6048491477054,429.47085202506594 L197.43480582979814,419.89574253113597 M197.43480582979814,419.89574253113597 L198.0621667802622,410.30313160354297 M198.0621667802622,410.30313160354297 L200.47656806305764,400.80538629027893 M200.47656806305764,400.80538629027893 L204.64683984381236,391.5133788159162 M204.64683984381236,391.5133788159162 L210.52148281178728,382.5352260536879 M210.52148281178728,382.5352260536879 L218.0293957566377,373.9750576415168 M218.0293957566377,373.9750576415168 L227.08077627725675,365.9318579919663 M227.08077627725675,365.9318579919663 L237.56830302964994,358.498356921743 M237.56830302964994,358.498356921743 L249.36840948874558,351.7600344639166 M249.36840948874558,351.7600344639166 L262.3428057703773,345.79416592974974 M262.3428057703773,345.79416592974974 L276.3400357630078,340.6690303607295 M276.3400357630078,340.6690303607295 L291.1972745398177,336.44316067631956 M291.1972745398177,336.44316067631956 L306.74214447053726,333.16475133964485 M306.74214447053726,333.16475133964485 L322.79467540005817,330.87112806049817 M322.79467540005817,330.87112806049817 L339.1692922906084,329.5883815089146 M339.1692922906084,329.5883815089146 L355.67686926189907,329.3311000346359 M355.67686926189907,329.3311000346359 L372.12681910948936,330.1022138169957 M372.12681910948936,330.1022138169957 L388.3292009242489,331.892941910262 M388.3292009242489,331.892941910262 L404.0967995038891,334.68293478950324 M404.0967995038891,334.68293478950324 L419.24720519326604,338.44042742410744 M419.24720519326604,338.44042742410744 L433.60480673786645,343.1226131084118 M433.60480673786645,343.1226131084118 L447.00282173844664,348.6760526079279 M447.00282173844664,348.6760526079279 L459.2850996271797,355.03726551543184 M240.37687807701886,364.39267692311483 L229.33657201883346,357.22263168388776 M229.33657201883346,357.22263168388776 L219.72609657452176,349.4059483746743 M219.72609657452176,349.4059483746743 L211.657066897753,341.0359454388874 M211.657066897753,341.0359454388874 L205.22252885759963,332.2122056892225 M205.22252885759963,332.2122056892225 L200.4958034635885,323.0394345476182 M200.4958034635885,323.0394345476182 L197.52976529419362,313.62615081495227 M197.52976529419362,313.62615081495227 L196.35637784639542,304.0833230627064 M196.35637784639542,304.0833230627064 L196.98645425255054,294.5230887199391 M196.98645425255054,294.5230887199391 L199.40957854250476,285.0574351455621 M199.40957854250476,285.0574351455621 L203.59445934809236,275.7968582770903 M203.59445934809236,275.7968582770903 L209.48940856744764,266.8491064655377 M209.48940856744764,266.8491064655377 L217.02307197243323,258.3179529278335 M217.02307197243323,258.3179529278335 L226.1053334472899,250.30204190488013 M226.1053334472899,250.30204190488013 L236.62850161141,242.8937833250763 M236.62850161141,242.8937833250763 L248.46858814337784,236.1783613005844 M248.46858814337784,236.1783613005844 L261.4868348730357,230.23278275925705 M261.4868348730357,230.23278275925705 L275.53127616589666,225.1250889187963 M275.53127616589666,225.1250889187963 L290.43854226702626,220.91360830645232 M290.43854226702626,220.91360830645232 L306.0356812813364,217.6463667375872 M306.0356812813364,217.6463667375872 L322.14212559529307,215.36055908356894 M322.14212559529307,215.36055908356894 L338.57168575816166,214.08218444304748 M338.57168575816166,214.08218444304748 L355.13461091196064,213.8257799235979 M355.13461091196064,213.8257799235979 L371.63968476981677,214.59426540911429 M371.63968476981677,214.59426540911429 L387.89633973321963,216.37889080310754 M387.89633973321963,216.37889080310754 L403.71674270812906,219.15937803654018 M403.71674270812906,219.15937803654018 L418.9178813841688,222.9040735001398 M418.9178813841688,222.9040735001398 L433.32356328736404,227.57032041967724 M433.32356328736404,227.57032041967724 L446.76645263938667,233.10486637286223 M446.76645263938667,233.10486637286223 L459.0898790703175,239.4444523526979" stroke="black"  stroke-width="4"  fill="red"/></svg>